<svg width="40" height="40" viewBox="0 0 40 40" fill="none" xmlns="http://www.w3.org/2000/svg">
<rect width="40" height="40" rx="10" fill="url(#paint0_linear_87_243)"/>
<path fill-rule="evenodd" clip-rule="evenodd" d="M12 16C12 15.4696 12.2107 14.9609 12.5858 14.5858C12.9609 14.2107 13.4696 14 14 14H26C26.5304 14 27.0391 14.2107 27.4142 14.5858C27.7893 14.9609 28 15.4696 28 16V21H12V16ZM23.5 17C23.3674 17 23.2402 17.0527 23.1464 17.1464C23.0527 17.2402 23 17.3674 23 17.5V18.5C23 18.6326 23.0527 18.7598 23.1464 18.8536C23.2402 18.9473 23.3674 19 23.5 19H25.5C25.6326 19 25.7598 18.9473 25.8536 18.8536C25.9473 18.7598 26 18.6326 26 18.5V17.5C26 17.3674 25.9473 17.2402 25.8536 17.1464C25.7598 17.0527 25.6326 17 25.5 17H23.5Z" fill="white"/>
<path d="M12 23V24C12 24.5304 12.2107 25.0391 12.5858 25.4142C12.9609 25.7893 13.4696 26 14 26H26C26.5304 26 27.0391 25.7893 27.4142 25.4142C27.7893 25.0391 28 24.5304 28 24V23H12Z" fill="white"/>
<defs>
<linearGradient id="paint0_linear_87_243" x1="0" y1="0" x2="48.2842" y2="19.9542" gradientUnits="userSpaceOnUse">
<stop stop-color="#EBC540"/>
<stop offset="1" stop-color="#FFD748"/>
</linearGradient>
</defs>
</svg>
