<svg width="40" height="40" viewBox="0 0 40 40" fill="none" xmlns="http://www.w3.org/2000/svg">
<rect width="40" height="40" rx="10" fill="url(#paint0_linear_87_254)"/>
<path d="M13 16.25C13 15.56 13.56 15 14.25 15H23.75C24.44 15 25 15.56 25 16.25V21.75C25 22.44 24.44 23 23.75 23H14.25C13.56 23 13 22.44 13 21.75V16.25ZM16 16.5V16H15V16.5C15 16.6326 14.9473 16.7598 14.8536 16.8536C14.7598 16.9473 14.6326 17 14.5 17H14V18H14.5C14.8978 18 15.2794 17.842 15.5607 17.5607C15.842 17.2794 16 16.8978 16 16.5ZM21 19C21 18.4696 20.7893 17.9609 20.4142 17.5858C20.0391 17.2107 19.5304 17 19 17C18.4696 17 17.9609 17.2107 17.5858 17.5858C17.2107 17.9609 17 18.4696 17 19C17 19.5304 17.2107 20.0391 17.5858 20.4142C17.9609 20.7893 18.4696 21 19 21C19.5304 21 20.0391 20.7893 20.4142 20.4142C20.7893 20.0391 21 19.5304 21 19ZM23 16H22V16.5C22 16.8978 22.158 17.2794 22.4393 17.5607C22.7206 17.842 23.1022 18 23.5 18H24V17H23.5C23.3674 17 23.2402 16.9473 23.1464 16.8536C23.0527 16.7598 23 16.6326 23 16.5V16ZM16 21.5C16 21.1022 15.842 20.7206 15.5607 20.4393C15.2794 20.158 14.8978 20 14.5 20H14V21H14.5C14.6326 21 14.7598 21.0527 14.8536 21.1464C14.9473 21.2402 15 21.3674 15 21.5V22H16V21.5ZM23 22V21.5C23 21.3674 23.0527 21.2402 23.1464 21.1464C23.2402 21.0527 23.3674 21 23.5 21H24V20H23.5C23.1022 20 22.7206 20.158 22.4393 20.4393C22.158 20.7206 22 21.1022 22 21.5V22H23Z" fill="white"/>
<path d="M16.5 25C16.1832 25.0001 15.8745 24.8999 15.6182 24.7138C15.3618 24.5277 15.171 24.2652 15.073 23.964C15.212 23.988 15.354 24 15.5 24H23.75C24.3467 24 24.919 23.7629 25.341 23.341C25.7629 22.919 26 22.3467 26 21.75V17.085C26.2926 17.1884 26.5459 17.38 26.725 17.6335C26.9041 17.8869 27.0002 18.1896 27 18.5V21.75C27 22.1768 26.9159 22.5994 26.7526 22.9937C26.5893 23.388 26.3499 23.7463 26.0481 24.0481C25.7463 24.3498 25.388 24.5892 24.9937 24.7526C24.5994 24.9159 24.1768 25 23.75 25H16.5Z" fill="white"/>
<defs>
<linearGradient id="paint0_linear_87_254" x1="0" y1="0" x2="48.2842" y2="19.9542" gradientUnits="userSpaceOnUse">
<stop stop-color="#EDC844"/>
<stop offset="1" stop-color="#FFD748"/>
</linearGradient>
</defs>
</svg>
