<svg width="26" height="24" viewBox="0 0 26 24" fill="none" xmlns="http://www.w3.org/2000/svg">
<path d="M22.5766 3.61638C22.0233 3.06281 21.3663 2.62367 20.6433 2.32406C19.9202 2.02445 19.1452 1.87024 18.3625 1.87024C17.5798 1.87024 16.8047 2.02445 16.0817 2.32406C15.3586 2.62367 14.7016 3.06281 14.1483 3.61638L13 4.76472L11.8516 3.61638C10.734 2.49872 9.21809 1.87082 7.63747 1.87082C6.05685 1.87082 4.54097 2.49872 3.4233 3.61638C2.30563 4.73405 1.67773 6.24993 1.67773 7.83055C1.67773 9.41117 2.30563 10.9271 3.4233 12.0447L4.57163 13.1931L13 21.6214L21.4283 13.1931L22.5766 12.0447C23.1302 11.4914 23.5693 10.8344 23.869 10.1114C24.1686 9.38827 24.3228 8.61325 24.3228 7.83055C24.3228 7.04786 24.1686 6.27283 23.869 5.54975C23.5693 4.82667 23.1302 4.1697 22.5766 3.61638V3.61638Z" stroke="#F1CC49" stroke-width="3" stroke-linecap="round" stroke-linejoin="round"/>
</svg>
