<svg width="146" height="20" viewBox="0 0 146 20" fill="none" xmlns="http://www.w3.org/2000/svg">
<path d="M28 15.1C27.5267 15.1 27.1033 15.0033 26.73 14.81C26.3633 14.6167 26.0733 14.3167 25.86 13.91C25.6533 13.5033 25.55 12.9833 25.55 12.35C25.55 11.69 25.66 11.1533 25.88 10.74C26.1 10.3267 26.3967 10.0233 26.77 9.83C27.15 9.63667 27.58 9.54 28.06 9.54C28.3333 9.54 28.5967 9.57 28.85 9.63C29.1033 9.68333 29.31 9.75 29.47 9.83L29.2 10.56C29.04 10.5 28.8533 10.4433 28.64 10.39C28.4267 10.3367 28.2267 10.31 28.04 10.31C27.68 10.31 27.3833 10.3867 27.15 10.54C26.9167 10.6933 26.7433 10.92 26.63 11.22C26.5167 11.52 26.46 11.8933 26.46 12.34C26.46 12.7667 26.5167 13.13 26.63 13.43C26.7433 13.73 26.9133 13.9567 27.14 14.11C27.3667 14.2633 27.65 14.34 27.99 14.34C28.2833 14.34 28.54 14.31 28.76 14.25C28.9867 14.19 29.1933 14.1167 29.38 14.03V14.81C29.2 14.9033 29 14.9733 28.78 15.02C28.5667 15.0733 28.3067 15.1 28 15.1ZM34.9647 10.99C34.9647 11.3233 34.8647 11.5833 34.6647 11.77C34.4647 11.9567 34.208 12.0833 33.8947 12.15V12.19C34.228 12.2367 34.518 12.3567 34.7647 12.55C35.0114 12.7367 35.1347 13.03 35.1347 13.43C35.1347 13.6567 35.0914 13.8667 35.0047 14.06C34.9247 14.2533 34.798 14.42 34.6247 14.56C34.4514 14.7 34.228 14.81 33.9547 14.89C33.6814 14.9633 33.3514 15 32.9647 15H30.6547V9.64H32.9547C33.3347 9.64 33.6747 9.68333 33.9747 9.77C34.2814 9.85 34.5214 9.99 34.6947 10.19C34.8747 10.3833 34.9647 10.65 34.9647 10.99ZM34.2247 13.43C34.2247 13.1233 34.108 12.9033 33.8747 12.77C33.6414 12.6367 33.298 12.57 32.8447 12.57H31.5347V14.29H32.8647C33.3047 14.29 33.6414 14.2267 33.8747 14.1C34.108 13.9667 34.2247 13.7433 34.2247 13.43ZM34.0747 11.1C34.0747 10.8467 33.9814 10.6633 33.7947 10.55C33.6147 10.43 33.318 10.37 32.9047 10.37H31.5347V11.84H32.7447C33.178 11.84 33.508 11.78 33.7347 11.66C33.9614 11.54 34.0747 11.3533 34.0747 11.1ZM38.4464 9.55C39.0997 9.55 39.5831 9.69333 39.8964 9.98C40.2097 10.2667 40.3664 10.7233 40.3664 11.35V15H39.7264L39.5564 14.24H39.5164C39.3631 14.4333 39.2031 14.5967 39.0364 14.73C38.8764 14.8567 38.6897 14.95 38.4764 15.01C38.2697 15.07 38.0164 15.1 37.7164 15.1C37.3964 15.1 37.1064 15.0433 36.8464 14.93C36.5931 14.8167 36.3931 14.6433 36.2464 14.41C36.0997 14.17 36.0264 13.87 36.0264 13.51C36.0264 12.9767 36.2364 12.5667 36.6564 12.28C37.0764 11.9867 37.7231 11.8267 38.5964 11.8L39.5064 11.77V11.45C39.5064 11.0033 39.4097 10.6933 39.2164 10.52C39.0231 10.3467 38.7497 10.26 38.3964 10.26C38.1164 10.26 37.8497 10.3033 37.5964 10.39C37.3431 10.47 37.1064 10.5633 36.8864 10.67L36.6164 10.01C36.8497 9.88333 37.1264 9.77667 37.4464 9.69C37.7664 9.59667 38.0997 9.55 38.4464 9.55ZM38.7064 12.41C38.0397 12.4367 37.5764 12.5433 37.3164 12.73C37.0631 12.9167 36.9364 13.18 36.9364 13.52C36.9364 13.82 37.0264 14.04 37.2064 14.18C37.3931 14.32 37.6297 14.39 37.9164 14.39C38.3697 14.39 38.7464 14.2667 39.0464 14.02C39.3464 13.7667 39.4964 13.38 39.4964 12.86V12.38L38.7064 12.41ZM46.3619 7.42C46.3352 7.75333 46.2519 8.03333 46.1119 8.26C45.9785 8.48667 45.7785 8.65667 45.5119 8.77C45.2452 8.88333 44.8985 8.94 44.4719 8.94C44.0385 8.94 43.6885 8.88333 43.4219 8.77C43.1619 8.65667 42.9719 8.49 42.8519 8.27C42.7319 8.04333 42.6585 7.76 42.6319 7.42H43.4519C43.4852 7.78 43.5785 8.02333 43.7319 8.15C43.8919 8.27 44.1452 8.33 44.4919 8.33C44.7985 8.33 45.0385 8.26667 45.2119 8.14C45.3919 8.00667 45.4985 7.76667 45.5319 7.42H46.3619ZM42.8519 12.91C42.8519 12.97 42.8485 13.0567 42.8419 13.17C42.8419 13.2767 42.8385 13.3933 42.8319 13.52C42.8252 13.64 42.8185 13.7567 42.8119 13.87C42.8052 13.9767 42.7985 14.0633 42.7919 14.13L45.6619 9.64H46.7419V15H45.9219V11.84C45.9219 11.7333 45.9219 11.5933 45.9219 11.42C45.9285 11.2467 45.9352 11.0767 45.9419 10.91C45.9485 10.7367 45.9552 10.6067 45.9619 10.52L43.1119 15H42.0219V9.64H42.8519V12.91ZM52.9777 9.64V15H52.0977V10.39H49.3277V15H48.4477V9.64H52.9777ZM56.7179 9.55C57.3712 9.55 57.8546 9.69333 58.1679 9.98C58.4812 10.2667 58.6379 10.7233 58.6379 11.35V15H57.9979L57.8279 14.24H57.7879C57.6346 14.4333 57.4746 14.5967 57.3079 14.73C57.1479 14.8567 56.9612 14.95 56.7479 15.01C56.5412 15.07 56.2879 15.1 55.9879 15.1C55.6679 15.1 55.3779 15.0433 55.1179 14.93C54.8646 14.8167 54.6646 14.6433 54.5179 14.41C54.3712 14.17 54.2979 13.87 54.2979 13.51C54.2979 12.9767 54.5079 12.5667 54.9279 12.28C55.3479 11.9867 55.9946 11.8267 56.8679 11.8L57.7779 11.77V11.45C57.7779 11.0033 57.6812 10.6933 57.4879 10.52C57.2946 10.3467 57.0212 10.26 56.6679 10.26C56.3879 10.26 56.1212 10.3033 55.8679 10.39C55.6146 10.47 55.3779 10.5633 55.1579 10.67L54.8879 10.01C55.1212 9.88333 55.3979 9.77667 55.7179 9.69C56.0379 9.59667 56.3712 9.55 56.7179 9.55ZM56.9779 12.41C56.3112 12.4367 55.8479 12.5433 55.5879 12.73C55.3346 12.9167 55.2079 13.18 55.2079 13.52C55.2079 13.82 55.2979 14.04 55.4779 14.18C55.6646 14.32 55.9012 14.39 56.1879 14.39C56.6412 14.39 57.0179 14.2667 57.3179 14.02C57.6179 13.7667 57.7679 13.38 57.7679 12.86V12.38L56.9779 12.41ZM63.9934 10.38H62.2434V15H61.3734V10.38H59.6434V9.64H63.9934V10.38ZM67.5192 11.84C67.9859 11.84 68.3726 11.8967 68.6792 12.01C68.9859 12.1233 69.2159 12.2933 69.3692 12.52C69.5292 12.74 69.6092 13.02 69.6092 13.36C69.6092 13.6933 69.5326 13.9833 69.3792 14.23C69.2326 14.4767 69.0026 14.6667 68.6892 14.8C68.3759 14.9333 67.9726 15 67.4792 15H65.0492V9.64H65.9292V11.84H67.5192ZM68.7292 13.41C68.7292 13.0833 68.6126 12.8633 68.3792 12.75C68.1526 12.63 67.8326 12.57 67.4192 12.57H65.9292V14.29H67.4392C67.8126 14.29 68.1192 14.2233 68.3592 14.09C68.6059 13.9567 68.7292 13.73 68.7292 13.41ZM77.6327 9.64V14.26H78.4127V16.86H77.5627V15H73.8327V16.86H72.9927V14.26H73.4227C73.7294 13.8333 73.9827 13.37 74.1827 12.87C74.3894 12.3633 74.5427 11.8367 74.6427 11.29C74.7494 10.7367 74.8061 10.1867 74.8127 9.64H77.6327ZM75.5927 10.33C75.5661 10.7833 75.4961 11.2533 75.3827 11.74C75.2694 12.22 75.1227 12.68 74.9427 13.12C74.7694 13.56 74.5661 13.94 74.3327 14.26H76.7827V10.33H75.5927ZM83.5433 15H82.6533V10.37H81.0733C81.0066 11.2167 80.9233 11.94 80.8233 12.54C80.7233 13.1333 80.5966 13.6167 80.4433 13.99C80.2899 14.3633 80.1066 14.6367 79.8933 14.81C79.6799 14.9833 79.4299 15.07 79.1433 15.07C79.0566 15.07 78.9699 15.0633 78.8833 15.05C78.8033 15.0433 78.7366 15.0267 78.6833 15V14.34C78.7233 14.3533 78.7666 14.3633 78.8133 14.37C78.8599 14.3767 78.9066 14.38 78.9533 14.38C79.0999 14.38 79.2333 14.32 79.3533 14.2C79.4733 14.08 79.5799 13.8967 79.6733 13.65C79.7733 13.4033 79.8633 13.0933 79.9433 12.72C80.0233 12.34 80.0933 11.8933 80.1533 11.38C80.2133 10.8667 80.2666 10.2867 80.3133 9.64H83.5433V15ZM85.5745 15H84.5545L86.0845 12.75C85.8779 12.6967 85.6779 12.6133 85.4845 12.5C85.2912 12.38 85.1345 12.2167 85.0145 12.01C84.8945 11.7967 84.8345 11.5333 84.8345 11.22C84.8345 10.7067 85.0079 10.3167 85.3545 10.05C85.7012 9.77667 86.1612 9.64 86.7345 9.64H89.1345V15H88.2545V12.87H86.9545L85.5745 15ZM85.6845 11.23C85.6845 11.5367 85.7979 11.7667 86.0245 11.92C86.2579 12.0667 86.5812 12.14 86.9945 12.14H88.2545V10.37H86.8245C86.4179 10.37 86.1245 10.45 85.9445 10.61C85.7712 10.77 85.6845 10.9767 85.6845 11.23ZM97.8065 10.99C97.8065 11.3233 97.7065 11.5833 97.5065 11.77C97.3065 11.9567 97.0498 12.0833 96.7365 12.15V12.19C97.0698 12.2367 97.3598 12.3567 97.6065 12.55C97.8532 12.7367 97.9765 13.03 97.9765 13.43C97.9765 13.6567 97.9332 13.8667 97.8465 14.06C97.7665 14.2533 97.6398 14.42 97.4665 14.56C97.2932 14.7 97.0698 14.81 96.7965 14.89C96.5232 14.9633 96.1932 15 95.8065 15H93.4965V9.64H95.7965C96.1765 9.64 96.5165 9.68333 96.8165 9.77C97.1232 9.85 97.3632 9.99 97.5365 10.19C97.7165 10.3833 97.8065 10.65 97.8065 10.99ZM97.0665 13.43C97.0665 13.1233 96.9498 12.9033 96.7165 12.77C96.4832 12.6367 96.1398 12.57 95.6865 12.57H94.3765V14.29H95.7065C96.1465 14.29 96.4832 14.2267 96.7165 14.1C96.9498 13.9667 97.0665 13.7433 97.0665 13.43ZM96.9165 11.1C96.9165 10.8467 96.8232 10.6633 96.6365 10.55C96.4565 10.43 96.1598 10.37 95.7465 10.37H94.3765V11.84H95.5865C96.0198 11.84 96.3498 11.78 96.5765 11.66C96.8032 11.54 96.9165 11.3533 96.9165 11.1ZM100.088 12.91C100.088 12.97 100.085 13.0567 100.078 13.17C100.078 13.2767 100.075 13.3933 100.068 13.52C100.062 13.64 100.055 13.7567 100.048 13.87C100.042 13.9767 100.035 14.0633 100.028 14.13L102.898 9.64H103.978V15H103.158V11.84C103.158 11.7333 103.158 11.5933 103.158 11.42C103.165 11.2467 103.172 11.0767 103.178 10.91C103.185 10.7367 103.192 10.6067 103.198 10.52L100.348 15H99.2582V9.64H100.088V12.91ZM109.664 9.64V14.26H110.444V16.86H109.594V15H105.864V16.86H105.024V14.26H105.454C105.761 13.8333 106.014 13.37 106.214 12.87C106.421 12.3633 106.574 11.8367 106.674 11.29C106.781 10.7367 106.837 10.1867 106.844 9.64H109.664ZM107.624 10.33C107.597 10.7833 107.527 11.2533 107.414 11.74C107.301 12.22 107.154 12.68 106.974 13.12C106.801 13.56 106.597 13.94 106.364 14.26H108.814V10.33H107.624ZM113.525 9.55C114.178 9.55 114.661 9.69333 114.975 9.98C115.288 10.2667 115.445 10.7233 115.445 11.35V15H114.805L114.635 14.24H114.595C114.441 14.4333 114.281 14.5967 114.115 14.73C113.955 14.8567 113.768 14.95 113.555 15.01C113.348 15.07 113.095 15.1 112.795 15.1C112.475 15.1 112.185 15.0433 111.925 14.93C111.671 14.8167 111.471 14.6433 111.325 14.41C111.178 14.17 111.105 13.87 111.105 13.51C111.105 12.9767 111.315 12.5667 111.735 12.28C112.155 11.9867 112.801 11.8267 113.675 11.8L114.585 11.77V11.45C114.585 11.0033 114.488 10.6933 114.295 10.52C114.101 10.3467 113.828 10.26 113.475 10.26C113.195 10.26 112.928 10.3033 112.675 10.39C112.421 10.47 112.185 10.5633 111.965 10.67L111.695 10.01C111.928 9.88333 112.205 9.77667 112.525 9.69C112.845 9.59667 113.178 9.55 113.525 9.55ZM113.785 12.41C113.118 12.4367 112.655 12.5433 112.395 12.73C112.141 12.9167 112.015 13.18 112.015 13.52C112.015 13.82 112.105 14.04 112.285 14.18C112.471 14.32 112.708 14.39 112.995 14.39C113.448 14.39 113.825 14.2667 114.125 14.02C114.425 13.7667 114.575 13.38 114.575 12.86V12.38L113.785 12.41ZM121.18 15H120.29V10.37H118.71C118.643 11.2167 118.56 11.94 118.46 12.54C118.36 13.1333 118.233 13.6167 118.08 13.99C117.927 14.3633 117.743 14.6367 117.53 14.81C117.317 14.9833 117.067 15.07 116.78 15.07C116.693 15.07 116.607 15.0633 116.52 15.05C116.44 15.0433 116.373 15.0267 116.32 15V14.34C116.36 14.3533 116.403 14.3633 116.45 14.37C116.497 14.3767 116.543 14.38 116.59 14.38C116.737 14.38 116.87 14.32 116.99 14.2C117.11 14.08 117.217 13.8967 117.31 13.65C117.41 13.4033 117.5 13.0933 117.58 12.72C117.66 12.34 117.73 11.8933 117.79 11.38C117.85 10.8667 117.903 10.2867 117.95 9.64H121.18V15ZM124.951 9.54C125.411 9.54 125.805 9.64 126.131 9.84C126.465 10.04 126.718 10.3233 126.891 10.69C127.071 11.05 127.161 11.4733 127.161 11.96V12.49H123.491C123.505 13.0967 123.658 13.56 123.951 13.88C124.251 14.1933 124.668 14.35 125.201 14.35C125.541 14.35 125.841 14.32 126.101 14.26C126.368 14.1933 126.641 14.1 126.921 13.98V14.75C126.648 14.87 126.378 14.9567 126.111 15.01C125.845 15.07 125.528 15.1 125.161 15.1C124.655 15.1 124.205 14.9967 123.811 14.79C123.425 14.5833 123.121 14.2767 122.901 13.87C122.688 13.4567 122.581 12.9533 122.581 12.36C122.581 11.7733 122.678 11.27 122.871 10.85C123.071 10.43 123.348 10.1067 123.701 9.88C124.061 9.65333 124.478 9.54 124.951 9.54ZM124.941 10.26C124.521 10.26 124.188 10.3967 123.941 10.67C123.701 10.9367 123.558 11.31 123.511 11.79H126.241C126.241 11.4833 126.195 11.2167 126.101 10.99C126.008 10.7633 125.865 10.5867 125.671 10.46C125.485 10.3267 125.241 10.26 124.941 10.26ZM129.406 9.64V11.87H132.316V9.64H133.196V15H132.316V12.61H129.406V15H128.526V9.64H129.406ZM135.773 9.64V11.87H138.683V9.64H139.563V15H138.683V12.61H135.773V15H134.893V9.64H135.773ZM141.59 15H140.57L142.1 12.75C141.893 12.6967 141.693 12.6133 141.5 12.5C141.307 12.38 141.15 12.2167 141.03 12.01C140.91 11.7967 140.85 11.5333 140.85 11.22C140.85 10.7067 141.023 10.3167 141.37 10.05C141.717 9.77667 142.177 9.64 142.75 9.64H145.15V15H144.27V12.87H142.97L141.59 15ZM141.7 11.23C141.7 11.5367 141.813 11.7667 142.04 11.92C142.273 12.0667 142.597 12.14 143.01 12.14H144.27V10.37H142.84C142.433 10.37 142.14 10.45 141.96 10.61C141.787 10.77 141.7 10.9767 141.7 11.23Z" fill="white"/>
<path d="M10.7375 2.66493C10.7165 2.65443 8.636 1.66643 6.9805 1.54043C5.2405 1.40493 3.497 2.32843 3.479 2.33843L3.2435 1.89693C3.3195 1.85643 5.1335 0.900935 7.0185 1.04143C8.768 1.17543 10.8645 2.17193 10.953 2.21393L10.7375 2.66493Z" fill="white"/>
<path d="M8.9785 3.64839L8.7595 3.19889L10.4745 2.36289L9.3665 0.840387L9.771 0.546387L11.2295 2.55039L8.9785 3.64839Z" fill="white"/>
<path d="M1.5115 4.9568L1.296 4.5058C1.3845 4.4638 3.481 3.4673 5.231 3.3333C7.11 3.1963 8.9295 4.1483 9.0055 4.1888L8.77 4.6303C8.7525 4.6208 7.0035 3.6968 5.269 3.8323C3.6135 3.9583 1.5325 4.9468 1.5115 4.9568Z" fill="white"/>
<path d="M3.271 5.94038L1.0195 4.84238L2.478 2.83838L2.8825 3.13238L1.7745 4.65488L3.4895 5.49088L3.271 5.94038Z" fill="white"/>
<path d="M12.669 19.7188C12.0325 19.7188 11.387 19.6498 10.803 19.5198C9.8065 19.2978 7.71 17.6983 7.2665 17.2388C6.8655 16.8233 5.7915 15.2283 5.634 13.9308C5.565 13.3658 5.9985 11.6823 6.529 11.0833C6.6335 10.9658 6.743 10.8868 6.855 10.8478C6.83247 10.7963 6.80964 10.745 6.7865 10.6938C6.4415 9.9428 5.9305 9.0753 5.4795 8.3093C4.716 7.0123 4.4315 6.4943 4.4795 6.1993C4.56 5.6993 4.97 5.1223 5.516 5.0213L5.6125 5.0018C5.75326 4.96787 5.89725 4.9491 6.042 4.9458C6.5185 4.9458 6.955 5.2178 7.4165 5.8013C7.816 6.3068 8.463 7.7023 9.0075 8.9648C8.9825 8.6468 8.992 8.3813 9.059 8.2263C9.329 7.5998 10.082 7.3533 10.3115 7.3388L10.368 7.3373C10.5135 7.3373 11.258 7.3738 11.603 8.0978C11.658 8.2138 11.7105 8.3388 11.759 8.4653C11.821 8.2503 11.909 8.0628 12.0345 7.9558C12.4205 7.6278 12.949 7.4578 13.3085 7.5588C13.695 7.6673 14.0205 8.0763 14.138 8.6028C14.1885 8.4888 14.2495 8.3963 14.3215 8.3423C14.671 8.0803 15.279 8.0523 15.664 8.3193C16.134 8.6453 17.215 10.5983 17.405 12.3063C17.5605 13.7103 17.736 16.2193 17.1565 17.2533C16.5545 18.3258 15.323 19.1588 14.4335 19.4783C14.0005 19.6328 13.374 19.7188 12.669 19.7188ZM7.034 11.3288C6.702 11.3618 6.0515 13.2218 6.13 13.8693C6.271 15.0333 7.2705 16.5223 7.6265 16.8913C8.05 17.3303 10.055 18.8403 10.911 19.0308C11.4605 19.1533 12.0675 19.2183 12.6685 19.2183C13.308 19.2183 13.889 19.1408 14.263 19.0058C14.9355 18.7643 16.1435 18.0328 16.719 17.0063C17.093 16.3408 17.1615 14.6468 16.907 12.3603C16.7265 10.7313 15.673 8.9333 15.3785 8.7283C15.142 8.5648 14.748 8.6448 14.6205 8.7408C14.55 8.8213 14.4455 9.2923 14.405 9.7408L14.2795 11.1243L13.915 9.7838C13.915 9.7838 13.753 9.1888 13.651 8.7173C13.564 8.3188 13.342 8.0858 13.1725 8.0388C12.986 7.9858 12.6115 8.1193 12.358 8.3353C12.22 8.4528 12.1175 9.1318 12.113 9.6668L12.094 11.7453L11.6195 9.7213C11.6175 9.7123 11.419 8.8698 11.1515 8.3113C10.9355 7.8583 10.4605 7.8353 10.368 7.8353C10.2225 7.8453 9.69 8.0243 9.518 8.4228C9.398 8.7023 9.67 10.1608 9.9905 11.3513L9.5165 11.5073C9.5 11.4638 7.7575 7.0363 7.025 6.1098C6.554 5.5138 6.239 5.4448 6.043 5.4448C5.933 5.4448 5.827 5.4668 5.7155 5.4903L5.608 5.5118C5.327 5.5638 5.0315 5.9223 4.973 6.2788C4.9775 6.4698 5.495 7.3488 5.911 8.0553C6.3675 8.8313 6.8855 9.7108 7.241 10.4843C7.3315 10.6808 7.4155 10.8853 7.493 11.0943L7.494 11.0978C8.0365 11.8453 8.3065 14.3038 8.336 14.5863L7.8395 14.6438C7.8375 14.6263 7.6085 12.8753 7.0535 11.3473C7.04743 11.3407 7.04092 11.3345 7.034 11.3288Z" fill="white"/>
</svg>
