<svg width="25" height="25" viewBox="0 0 25 25" fill="white" xmlns="http://www.w3.org/2000/svg">
<path d="M3.15173 1.98145C2.32331 1.98145 1.65173 2.65302 1.65173 3.48145C1.65173 4.30987 2.32331 4.98145 3.15173 4.98145V1.98145ZM5.44427 3.48145L6.89211 3.08932C6.71502 2.43547 6.12168 1.98145 5.44427 1.98145V3.48145ZM9.16964 17.2367L7.7218 17.6288C7.91721 18.3503 8.61399 18.8178 9.3557 18.7251L9.16964 17.2367ZM20.6323 15.8038L20.8184 17.2923C21.4554 17.2126 21.9711 16.7364 22.1012 16.1077L20.6323 15.8038ZM22.3517 7.49339L23.8206 7.7973C23.912 7.35552 23.7997 6.89607 23.5149 6.54625C23.23 6.19643 22.8029 5.99339 22.3517 5.99339V7.49339ZM6.53084 7.49339L5.083 7.88551L6.53084 7.49339ZM3.15173 4.98145H5.44427V1.98145H3.15173V4.98145ZM9.3557 18.7251L20.8184 17.2923L20.4463 14.3154L8.98359 15.7483L9.3557 18.7251ZM22.1012 16.1077L23.8206 7.7973L20.8828 7.18948L19.1634 15.4999L22.1012 16.1077ZM3.99643 3.87357L5.083 7.88551L7.97868 7.10126L6.89211 3.08932L3.99643 3.87357ZM5.083 7.88551L7.7218 17.6288L10.6175 16.8445L7.97868 7.10126L5.083 7.88551ZM22.3517 5.99339H6.53084V8.99339H22.3517V5.99339ZM11.2517 20.9887V23.9887C12.9086 23.9887 14.2517 22.6456 14.2517 20.9887H11.2517ZM11.2517 20.9887H8.25173C8.25173 22.6456 9.59488 23.9887 11.2517 23.9887V20.9887ZM11.2517 20.9887V17.9887C9.59488 17.9887 8.25173 19.3319 8.25173 20.9887H11.2517ZM11.2517 20.9887H14.2517C14.2517 19.3319 12.9086 17.9887 11.2517 17.9887V20.9887ZM19.2517 20.9887V23.9887C20.9086 23.9887 22.2517 22.6456 22.2517 20.9887H19.2517ZM19.2517 20.9887H16.2517C16.2517 22.6456 17.5949 23.9887 19.2517 23.9887V20.9887ZM19.2517 20.9887V17.9887C17.5949 17.9887 16.2517 19.3319 16.2517 20.9887H19.2517ZM19.2517 20.9887H22.2517C22.2517 19.3319 20.9086 17.9887 19.2517 17.9887V20.9887Z" />
</svg>
