<svg width="25" height="23" viewBox="0 0 25 23" fill="white" stroke="white" xmlns="http://www.w3.org/2000/svg">
<path d="M21.5335 3.98463C21.0228 3.47363 20.4163 3.06827 19.7489 2.79171C19.0814 2.51515 18.366 2.3728 17.6435 2.3728C16.921 2.3728 16.2056 2.51515 15.5382 2.79171C14.8707 3.06827 14.2643 3.47363 13.7535 3.98463L12.6935 5.04463L11.6335 3.98463C10.6018 2.95294 9.20257 2.37334 7.74354 2.37334C6.2845 2.37334 4.88523 2.95294 3.85354 3.98463C2.82184 5.01632 2.24224 6.4156 2.24224 7.87463C2.24224 9.33366 2.82184 10.7329 3.85354 11.7646L4.91354 12.8246L12.6935 20.6046L20.4735 12.8246L21.5335 11.7646C22.0445 11.2539 22.4499 10.6474 22.7264 9.97998C23.003 9.31252 23.1454 8.59712 23.1454 7.87463C23.1454 7.15214 23.003 6.43673 22.7264 5.76927C22.4499 5.10181 22.0445 4.49538 21.5335 3.98463V3.98463Z" stroke-width="3" stroke-linecap="round" stroke-linejoin="round"/>
</svg>

